
        <svg xmlns="http://www.w3.org/2000/svg" xmlns:xlink="http://www.w3.org/1999/xlink" version="1.1" width="3171.4285714285716" height="1892.1991037029964" viewBox="0 0 3171.4285714285716 1892.1991037029964">
			
			<g transform="scale(8.571428571428571) translate(10, 10)">
				<defs id="SvgjsDefs1066"/><g id="SvgjsG1067" featureKey="1p4tPl-0" transform="matrix(2.2861217813632426,0,0,2.2861217813632426,71.66864111146646,-24.690115674766147)" fill="#fff"><path xmlns="http://www.w3.org/2000/svg" d="M75,22.2c0,0-7.7-2-15.4-5.1C52.7,14.3,47,10.8,47,10.8s-5.6,3.6-12.6,6.3c-7.6,3.1-15.3,5-15.4,5.1  c-0.6,3.4-0.9,7-0.9,10.6c0,0.8,0,1.2,0.1,2c0.4,4.3,8,2.2,10.7,1.2c0.3-0.1,0.7-0.3,1-0.4c1-0.4,2-0.8,3.1-1.3  c2.1-0.9,4.3-2,6.6-3.2c3.3-1.8,6.7-3.8,9.6-6.1c-4.3,5.8-13.5,12.7-23.8,17.1c-2.6,1.1-6.2,2.5-8.7,2.4c-3-0.1-2,0.4-1.8,0.5  c3.2,1.6,5,3.9,5.9,6c0.6,1.4,2.7,3.6,14-2.2c6.4-3.3,14.6-8,22.9-14.6c0.3-0.2,0.6-0.5,0.9-0.7c1.8-1.5,3.7-3,5.5-4.6  c-4.3,8.7-16.4,18.8-31,26.3c-4.6,2.4-5.8,2.7-7.8,3.4c-2.7,0.9-5.3,0.5-5.3,1c-0.1,0.7,3.4,1.4,7,5c3.3,3.3,11.6-0.5,15.1-2.4  C46,60,53,55.6,57.7,51.5c0.9-0.8,1.7-1.6,2.5-2.4c-3.5,8.3-11,14.3-20.9,19.9c-2.5,1.4-6.7,2.6-8.5,3.1c-0.5,0.2-1.2,0.2-1.2,0.5  c0,0.6,4,1,6.6,2.4c3.6,1.9,6.1,2.9,7,3.2c1.2,0.5,2.5,0.8,3.8,1.1c17.2-3.8,28.8-23.5,28.8-46.6C75.9,29.2,75.6,25.6,75,22.2z"/></g><g id="SvgjsG1068" featureKey="dYASrj-0" transform="matrix(1.6706443914081146,0,0,1.6706443914081146,-1.4033399504522721,168.64677804295943)" fill="#fff"><path d="M13.58 5.82 c-0.72 -0.25334 -1.4467 -0.38 -2.18 -0.38 l-10.56 0 l0 13.12 l10.56 0 c0.73334 0 1.46 -0.12666 2.18 -0.38 c1.3067 -0.45334 2.3634 -1.25 3.17 -2.39 s1.21 -2.4034 1.21 -3.79 s-0.40334 -2.65 -1.21 -3.79 s-1.8633 -1.9367 -3.17 -2.39 z M13.22 17.14 c-0.56 0.2 -1.1667 0.30008 -1.82 0.30008 l-9.44 0 l0 -10.88 l9.44 0 c0.65334 0 1.26 0.1 1.82 0.3 c1.08 0.38666 1.9533 1.0533 2.62 2 s1 1.9933 1 3.14 s-0.33334 2.1934 -1 3.14 s-1.54 1.6133 -2.62 2 z M28.060000000000002 5.220000000000001 c-2.4266 0 -4.5066 0.66 -6.24 1.98 c-1.7733 1.3467 -2.66 2.9866 -2.66 4.92 s0.88666 3.5734 2.66 4.92 c1.72 1.3067 3.8 1.96 6.24 1.96 s4.5134 -0.65334 6.22 -1.96 c1.7733 -1.36 2.66 -3 2.66 -4.92 s-0.88666 -3.56 -2.66 -4.92 c-1.7333 -1.32 -3.8066 -1.98 -6.22 -1.98 z M35.84 12.120000000000001 c0 1.5867 -0.76 2.9434 -2.28 4.07 s-3.3534 1.69 -5.5 1.69 s-3.98 -0.56334 -5.5 -1.69 s-2.28 -2.4834 -2.28 -4.07 c0 -1.6 0.76 -2.9634 2.28 -4.09 s3.3534 -1.69 5.5 -1.69 s3.98 0.56334 5.5 1.69 s2.28 2.49 2.28 4.09 z M54.900000000000006 17.56 l-15.44 0 l0 -11.44 c0 -0.37334 -0.18666 -0.56 -0.56 -0.56 s-0.56 0.18666 -0.56 0.56 l0 12.54 l16.56 0 c0.37334 0 0.56 -0.18 0.56 -0.54 c0 -0.37334 -0.18666 -0.56 -0.56 -0.56 z M73.58 17.56 l-15.44 0 l0 -11.44 c0 -0.37334 -0.18666 -0.56 -0.56 -0.56 s-0.56 0.18666 -0.56 0.56 l0 12.54 l16.56 0 c0.37334 0 0.56 -0.18 0.56 -0.54 c0 -0.37334 -0.18666 -0.56 -0.56 -0.56 z M96.68 17.64 l-10.76 -12.5 l-10.42 12.5 c-0.08 0.09334 -0.12 0.20668 -0.12 0.34002 c0 0.38666 0.19334 0.58 0.58 0.58 c0.16 0 0.29334 -0.06666 0.4 -0.2 l0 0 l3.16 -3.8 l13.04 0 l3.28 3.8 c0.12 0.13334 0.26666 0.2 0.44 0.2 c0.36 0 0.54 -0.18 0.54 -0.54 c0 -0.14666 -0.04666 -0.27332 -0.14 -0.37998 z M80.46000000000001 13.440000000000001 l5.48 -6.58 l5.68 6.58 l-11.16 0 z M115.28000000000002 17.54 l-4.48 -2.98 l0.16 0 c1.2667 0 2.3434 -0.44666 3.23 -1.34 s1.33 -1.9667 1.33 -3.22 c0 -1.2667 -0.44334 -2.3434 -1.33 -3.23 s-1.9633 -1.33 -3.23 -1.33 l-12.56 0 l0 12.56 c0 0.37334 0.18666 0.56 0.56 0.56 s0.56 -0.18666 0.56 -0.56 l0 -3.44 l9.28 0 l5.86 3.9 c0.09334 0.06666 0.19334 0.1 0.3 0.1 c0.2 0 0.35334 -0.08666 0.46 -0.26 c0.06666 -0.09334 0.1 -0.19334 0.1 -0.3 c0 -0.2 -0.08 -0.35334 -0.24 -0.46 z M99.52000000000001 6.5600000000000005 l11.44 0 c0.94666 0 1.7567 0.33666 2.43 1.01 s1.01 1.4833 1.01 2.43 s-0.33666 1.7567 -1.01 2.43 s-1.4833 1.01 -2.43 1.01 l-11.44 0 l0 -6.88 z M134.04000000000002 17.72 l-7.46 -7.46 l7.32 -3.66 c0.2 -0.09334 0.3 -0.25334 0.3 -0.48 c0 -0.21334 -0.08666 -0.37334 -0.26 -0.48 s-0.35334 -0.11332 -0.54 -0.01998 l-15.2 7.6 l0 -7.1 c0 -0.37334 -0.18666 -0.56 -0.56 -0.56 s-0.56 0.18666 -0.56 0.56 l0 12 c0 0.36 0.18666 0.54 0.56 0.54 s0.56 -0.18 0.56 -0.54 l0 -3.66 l7.34 -3.68 l7.7 7.72 c0.10666 0.10666 0.24 0.16 0.4 0.16 c0.37334 0 0.56 -0.18666 0.56 -0.56 c0 -0.14666 -0.05334 -0.27332 -0.16 -0.37998 z M151.98000000000002 5.5600000000000005 c-0.37334 0 -0.56 0.18666 -0.56 0.56 l0 10.88 l-16 -12 l0 13.12 c0 0.36 0.18666 0.54 0.56 0.54 s0.56 -0.18 0.56 -0.54 l0 -10.9 l16 12 l0 -13.1 c0 -0.37334 -0.18666 -0.56 -0.56 -0.56 z M154.16 6.119999999999999 l0 12 c0 0.36 0.18 0.54 0.54 0.54 c0.37334 0 0.56 -0.18 0.56 -0.54 l0 0 l0 -12 c0 -0.37334 -0.18666 -0.56 -0.56 -0.56 c-0.36 0 -0.54 0.18666 -0.54 0.56 z M165.86 13.559999999999999 c-0.37334 0 -0.55994 0.18666 -0.55994 0.56 c0 0.36 0.18666 0.54 0.56 0.54 l6.44 0 l0 0.68 c-0.73334 0.8 -1.6667 1.4233 -2.8 1.87 s-2.3466 0.67 -3.64 0.67 c-2.1466 0 -3.98 -0.56334 -5.5 -1.69 s-2.28 -2.4834 -2.28 -4.07 c0 -1.6 0.76 -2.9634 2.28 -4.09 s3.3534 -1.69 5.5 -1.69 c1.32 0 2.5566 0.23334 3.71 0.7 s2.09 1.1133 2.81 1.94 l0 0 c0.10666 0.13334 0.24666 0.2 0.42 0.2 c0.37334 0 0.56 -0.18666 0.56 -0.56 c0 -0.13334 -0.04666 -0.25334 -0.14 -0.36 c-0.84 -0.94666 -1.9067 -1.69 -3.2 -2.23 s-2.68 -0.81 -4.16 -0.81 c-2.4266 0 -4.5066 0.66 -6.24 1.98 c-1.7733 1.3467 -2.66 2.9866 -2.66 4.92 s0.88666 3.5734 2.66 4.92 c1.72 1.3067 3.8 1.96 6.24 1.96 c2.5466 0 4.6934 -0.71334 6.44 -2.14 l0 1.26 c0 0.36 0.18666 0.54 0.56 0.54 c0.36 0 0.54 -0.18 0.54 -0.54 l0 -4.56 l-7.54 0 z M191.66000000000003 5.66 c-0.37334 0 -0.56 0.18666 -0.56 0.56 l0 5.44 l-14.88 0 l0 -5.44 c0 -0.37334 -0.18666 -0.56 -0.56 -0.56 s-0.56 0.18666 -0.56 0.56 l0 12 c0 0.37334 0.18666 0.56 0.56 0.56 s0.56 -0.18666 0.56 -0.56 l0 -5.44 l14.88 0 l0 5.44 c0 0.37334 0.18666 0.56 0.56 0.56 s0.56 -0.18666 0.56 -0.56 l0 -12 c0 -0.37334 -0.18666 -0.56 -0.56 -0.56 z M209.78 5.4399999999999995 l-16 0 c-0.37334 0 -0.56 0.18666 -0.56 0.56 s0.18666 0.56 0.56 0.56 l7.44 0 l0 11.44 c0 0.37334 0.18666 0.56 0.56 0.56 s0.56 -0.18666 0.56 -0.56 l0 -11.44 l7.44 0 c0.37334 0 0.56 -0.18666 0.56 -0.56 s-0.18666 -0.56 -0.56 -0.56 z"/></g>
			</g>
		</svg>
	